<mxfile host="app.diagrams.net" agent="Mozilla/5.0 (Windows NT 10.0; Win64; x64) AppleWebKit/537.36 (KHTML, like Gecko) Chrome/128.0.0.0 Safari/537.36 OPR/114.0.0.0 (Edition std-2)" version="24.8.3">
  <diagram name="Página-1" id="I4KFYu_oH2y2ZW3LKo4p">
    <mxGraphModel grid="1" page="1" gridSize="10" guides="1" tooltips="1" connect="1" arrows="1" fold="1" pageScale="1" pageWidth="827" pageHeight="1169" math="0" shadow="0">
      <root>
        <mxCell id="0" />
        <mxCell id="1" parent="0" />
        <mxCell id="-z17seQ5oS_XUyMgHpEa-47" value="" style="edgeStyle=orthogonalEdgeStyle;rounded=0;orthogonalLoop=1;jettySize=auto;html=1;entryX=0;entryY=0.5;entryDx=0;entryDy=0;" edge="1" parent="1" source="-z17seQ5oS_XUyMgHpEa-1" target="-z17seQ5oS_XUyMgHpEa-11">
          <mxGeometry relative="1" as="geometry" />
        </mxCell>
        <mxCell id="-z17seQ5oS_XUyMgHpEa-1" value="Cliente" style="shape=umlActor;verticalLabelPosition=bottom;verticalAlign=top;html=1;outlineConnect=0;" vertex="1" parent="1">
          <mxGeometry x="70" y="210" width="30" height="60" as="geometry" />
        </mxCell>
        <mxCell id="-z17seQ5oS_XUyMgHpEa-5" value="" style="swimlane;startSize=0;" vertex="1" parent="1">
          <mxGeometry x="140" y="10" width="760" height="680" as="geometry" />
        </mxCell>
        <mxCell id="-z17seQ5oS_XUyMgHpEa-6" value="&lt;b&gt;&lt;font style=&quot;font-size: 19px;&quot;&gt;Sistema de Pedidos Online&lt;/font&gt;&lt;/b&gt;" style="text;html=1;align=center;verticalAlign=middle;whiteSpace=wrap;rounded=0;" vertex="1" parent="-z17seQ5oS_XUyMgHpEa-5">
          <mxGeometry x="276" y="30" width="270" height="30" as="geometry" />
        </mxCell>
        <mxCell id="-z17seQ5oS_XUyMgHpEa-2" value="UC01 - Cliente acessa o sistema" style="ellipse;whiteSpace=wrap;html=1;" vertex="1" parent="-z17seQ5oS_XUyMgHpEa-5">
          <mxGeometry x="60" y="60" width="120" height="80" as="geometry" />
        </mxCell>
        <mxCell id="-z17seQ5oS_XUyMgHpEa-7" value="UC02 - Cliente seleciona itens&amp;nbsp;&lt;div&gt;para o carrinho&lt;/div&gt;" style="ellipse;whiteSpace=wrap;html=1;" vertex="1" parent="-z17seQ5oS_XUyMgHpEa-5">
          <mxGeometry x="60" y="180" width="120" height="80" as="geometry" />
        </mxCell>
        <mxCell id="-z17seQ5oS_XUyMgHpEa-9" value="UC03 - Cliente personaliza o pedido" style="ellipse;whiteSpace=wrap;html=1;" vertex="1" parent="-z17seQ5oS_XUyMgHpEa-5">
          <mxGeometry x="60" y="300" width="120" height="80" as="geometry" />
        </mxCell>
        <mxCell id="-z17seQ5oS_XUyMgHpEa-11" value="UC04 - Cliente finaliza o pedido" style="ellipse;whiteSpace=wrap;html=1;" vertex="1" parent="-z17seQ5oS_XUyMgHpEa-5">
          <mxGeometry x="276" y="190" width="120" height="80" as="geometry" />
        </mxCell>
        <mxCell id="-z17seQ5oS_XUyMgHpEa-15" value="UC05 - Sistema processa o pedido" style="ellipse;whiteSpace=wrap;html=1;" vertex="1" parent="-z17seQ5oS_XUyMgHpEa-5">
          <mxGeometry x="60" y="420" width="120" height="80" as="geometry" />
        </mxCell>
        <mxCell id="-z17seQ5oS_XUyMgHpEa-20" value="UC06 - Pedido é enviado para a cozinha" style="ellipse;whiteSpace=wrap;html=1;" vertex="1" parent="-z17seQ5oS_XUyMgHpEa-5">
          <mxGeometry x="60" y="545" width="120" height="80" as="geometry" />
        </mxCell>
        <mxCell id="-z17seQ5oS_XUyMgHpEa-39" value="&amp;lt;&amp;lt;extend&amp;gt;&amp;gt;" style="endArrow=open;endSize=12;dashed=1;html=1;rounded=0;entryX=0.94;entryY=0.239;entryDx=0;entryDy=0;entryPerimeter=0;exitX=0.5;exitY=1;exitDx=0;exitDy=0;" edge="1" parent="-z17seQ5oS_XUyMgHpEa-5" source="-z17seQ5oS_XUyMgHpEa-11" target="-z17seQ5oS_XUyMgHpEa-15">
          <mxGeometry width="160" relative="1" as="geometry">
            <mxPoint x="178" y="326" as="sourcePoint" />
            <mxPoint x="293" y="266" as="targetPoint" />
          </mxGeometry>
        </mxCell>
        <mxCell id="-z17seQ5oS_XUyMgHpEa-40" value="&amp;lt;&amp;lt;include&amp;gt;&amp;gt;" style="endArrow=block;endSize=16;endFill=0;html=1;rounded=0;exitX=0.5;exitY=1;exitDx=0;exitDy=0;entryX=0.5;entryY=0;entryDx=0;entryDy=0;" edge="1" parent="-z17seQ5oS_XUyMgHpEa-5" source="-z17seQ5oS_XUyMgHpEa-2" target="-z17seQ5oS_XUyMgHpEa-7">
          <mxGeometry width="160" relative="1" as="geometry">
            <mxPoint x="130" y="270" as="sourcePoint" />
            <mxPoint x="290" y="270" as="targetPoint" />
          </mxGeometry>
        </mxCell>
        <mxCell id="-z17seQ5oS_XUyMgHpEa-42" value="&amp;lt;&amp;lt;include&amp;gt;&amp;gt;" style="endArrow=block;endSize=16;endFill=0;html=1;rounded=0;exitX=0.5;exitY=1;exitDx=0;exitDy=0;entryX=0.5;entryY=0;entryDx=0;entryDy=0;" edge="1" parent="-z17seQ5oS_XUyMgHpEa-5" source="-z17seQ5oS_XUyMgHpEa-7" target="-z17seQ5oS_XUyMgHpEa-9">
          <mxGeometry width="160" relative="1" as="geometry">
            <mxPoint x="130" y="150" as="sourcePoint" />
            <mxPoint x="130" y="190" as="targetPoint" />
          </mxGeometry>
        </mxCell>
        <mxCell id="-z17seQ5oS_XUyMgHpEa-43" value="&amp;lt;&amp;lt;include&amp;gt;&amp;gt;" style="endArrow=block;endSize=16;endFill=0;html=1;rounded=0;entryX=0.5;entryY=0;entryDx=0;entryDy=0;exitX=0.5;exitY=1;exitDx=0;exitDy=0;" edge="1" parent="-z17seQ5oS_XUyMgHpEa-5" source="-z17seQ5oS_XUyMgHpEa-15" target="-z17seQ5oS_XUyMgHpEa-20">
          <mxGeometry x="0.0159" width="160" relative="1" as="geometry">
            <mxPoint x="120" y="510" as="sourcePoint" />
            <mxPoint x="140" y="190" as="targetPoint" />
            <mxPoint as="offset" />
          </mxGeometry>
        </mxCell>
        <mxCell id="-z17seQ5oS_XUyMgHpEa-45" value="UC07 - Pedido é entregue na mesa do cliente" style="ellipse;whiteSpace=wrap;html=1;" vertex="1" parent="-z17seQ5oS_XUyMgHpEa-5">
          <mxGeometry x="290" y="545" width="120" height="80" as="geometry" />
        </mxCell>
        <mxCell id="-z17seQ5oS_XUyMgHpEa-44" value="&amp;lt;&amp;lt;include&amp;gt;&amp;gt;" style="endArrow=block;endSize=16;endFill=0;html=1;rounded=0;entryX=0;entryY=0.5;entryDx=0;entryDy=0;exitX=1;exitY=0.5;exitDx=0;exitDy=0;" edge="1" parent="-z17seQ5oS_XUyMgHpEa-5" source="-z17seQ5oS_XUyMgHpEa-20" target="-z17seQ5oS_XUyMgHpEa-45">
          <mxGeometry width="160" relative="1" as="geometry">
            <mxPoint x="130" y="510" as="sourcePoint" />
            <mxPoint x="130" y="555" as="targetPoint" />
            <mxPoint as="offset" />
          </mxGeometry>
        </mxCell>
        <mxCell id="-z17seQ5oS_XUyMgHpEa-23" value="" style="edgeStyle=orthogonalEdgeStyle;rounded=0;orthogonalLoop=1;jettySize=auto;html=1;" edge="1" parent="1" source="-z17seQ5oS_XUyMgHpEa-17" target="-z17seQ5oS_XUyMgHpEa-1">
          <mxGeometry relative="1" as="geometry" />
        </mxCell>
        <mxCell id="-z17seQ5oS_XUyMgHpEa-17" value="Funcionário" style="shape=umlActor;verticalLabelPosition=bottom;verticalAlign=top;html=1;outlineConnect=0;" vertex="1" parent="1">
          <mxGeometry x="70" y="370" width="30" height="60" as="geometry" />
        </mxCell>
        <mxCell id="-z17seQ5oS_XUyMgHpEa-25" value="" style="endArrow=classic;html=1;rounded=0;entryX=0.06;entryY=0.782;entryDx=0;entryDy=0;entryPerimeter=0;" edge="1" parent="1" source="-z17seQ5oS_XUyMgHpEa-1" target="-z17seQ5oS_XUyMgHpEa-2">
          <mxGeometry width="50" height="50" relative="1" as="geometry">
            <mxPoint x="386" y="300" as="sourcePoint" />
            <mxPoint x="426" y="260" as="targetPoint" />
          </mxGeometry>
        </mxCell>
        <mxCell id="-z17seQ5oS_XUyMgHpEa-30" value="" style="endArrow=classic;html=1;rounded=0;entryX=0.071;entryY=0.291;entryDx=0;entryDy=0;entryPerimeter=0;" edge="1" parent="1" source="-z17seQ5oS_XUyMgHpEa-17" target="-z17seQ5oS_XUyMgHpEa-20">
          <mxGeometry width="50" height="50" relative="1" as="geometry">
            <mxPoint x="440" y="450" as="sourcePoint" />
            <mxPoint x="490" y="400" as="targetPoint" />
          </mxGeometry>
        </mxCell>
      </root>
    </mxGraphModel>
  </diagram>
</mxfile>
